<?xml version="1.0" encoding="UTF-8" standalone="no"?>
<!DOCTYPE svg PUBLIC "-//W3C//DTD SVG 1.1//EN" "http://www.w3.org/Graphics/SVG/1.1/DTD/svg11.dtd">
<!-- Generated by graphviz version 2.26.3 (20100126.1600)
 -->
<!-- Title: Classes Pages: 1 -->
<svg xmlns="http://www.w3.org/2000/svg" xmlns:xlink="http://www.w3.org/1999/xlink" width="2088pt" height="1880pt">
<g id="viewport" class="graph" transform="scale(1 1) rotate(0) translate(4 1876)">
<title>Classes</title>
<polygon fill="white" stroke="white" points="-4,5 -4,-1876 2085,-1876 2085,5 -4,5"/>
<!-- 09a15e9660c1ebc6f429d818825ce0c6 -->
<g id="node1" class="node"><title>09a15e9660c1ebc6f429d818825ce0c6</title>
<polygon fill="white" stroke="black" points="262,-954 190,-954 190,-918 262,-918 262,-954"/>
<text text-anchor="middle" x="226" y="-932.4" font-family="Times Roman,serif" font-size="14.00" fill="gray">stdClass</text>
</g>
<!-- 9adc6c85e5a2f8851f363abfc6264078 -->
<g id="node2" class="node"><title>9adc6c85e5a2f8851f363abfc6264078</title>
<a xlink:href="_Response_Response.html" xlink:title="Response" target="_top">
<polygon fill="white" stroke="black" points="1533,-1872 1453,-1872 1453,-1836 1533,-1836 1533,-1872"/>
<text text-anchor="middle" x="1493" y="-1850.4" font-family="Times Roman,serif" font-size="14.00">Response</text>
</a>
</g>
<!-- 9adc6c85e5a2f8851f363abfc6264078&#45;&gt;09a15e9660c1ebc6f429d818825ce0c6 -->
<g id="edge2" class="edge"><title>9adc6c85e5a2f8851f363abfc6264078-&gt;09a15e9660c1ebc6f429d818825ce0c6</title>
<path fill="none" stroke="black" d="M1452.36,-1848.33C1434.31,-1844.41 1413.47,-1837.87 1397,-1827 972.529,-1546.87 1187.57,-936 679,-936"/>
</g>
<!-- e1af8091a417fb8cb7005a0154aaf0e8 -->
<g id="node3" class="node"><title>e1af8091a417fb8cb7005a0154aaf0e8</title>
<a xlink:href="_Response_Header_ResponseHeader.html" xlink:title="ResponseHeader" target="_top">
<polygon fill="white" stroke="black" points="1558,-1818 1428,-1818 1428,-1782 1558,-1782 1558,-1818"/>
<text text-anchor="middle" x="1493" y="-1796.4" font-family="Times Roman,serif" font-size="14.00">ResponseHeader</text>
</a>
</g>
<!-- e1af8091a417fb8cb7005a0154aaf0e8&#45;&gt;09a15e9660c1ebc6f429d818825ce0c6 -->
<g id="edge4" class="edge"><title>e1af8091a417fb8cb7005a0154aaf0e8-&gt;09a15e9660c1ebc6f429d818825ce0c6</title>
<path fill="none" stroke="black" d="M1427.26,-1787.11C1416.68,-1783.48 1406.19,-1778.87 1397,-1773 983.833,-1509.35 1169.12,-936 679,-936"/>
</g>
<!-- 80aca37d918e8510c0840bf5143457bc -->
<g id="node4" class="node"><title>80aca37d918e8510c0840bf5143457bc</title>
<a xlink:href="_Resource_Resource.html" xlink:title="Resource" target="_top">
<polygon fill="white" stroke="black" points="1532,-1764 1454,-1764 1454,-1728 1532,-1728 1532,-1764"/>
<text text-anchor="middle" x="1493" y="-1742.4" font-family="Times Roman,serif" font-size="14.00">Resource</text>
</a>
</g>
<!-- 80aca37d918e8510c0840bf5143457bc&#45;&gt;09a15e9660c1ebc6f429d818825ce0c6 -->
<g id="edge6" class="edge"><title>80aca37d918e8510c0840bf5143457bc-&gt;09a15e9660c1ebc6f429d818825ce0c6</title>
<path fill="none" stroke="black" d="M1453.15,-1739.94C1435.05,-1735.94 1413.96,-1729.43 1397,-1719 994.822,-1471.64 1151.16,-936 679,-936"/>
</g>
<!-- 12bf297903e9db1f1224937cfe291044 -->
<g id="node5" class="node"><title>12bf297903e9db1f1224937cfe291044</title>
<a xlink:href="_Request_Request.html" xlink:title="Request" target="_top">
<polygon fill="white" stroke="black" points="1529,-1710 1457,-1710 1457,-1674 1529,-1674 1529,-1710"/>
<text text-anchor="middle" x="1493" y="-1688.4" font-family="Times Roman,serif" font-size="14.00">Request</text>
</a>
</g>
<!-- 12bf297903e9db1f1224937cfe291044&#45;&gt;09a15e9660c1ebc6f429d818825ce0c6 -->
<g id="edge8" class="edge"><title>12bf297903e9db1f1224937cfe291044-&gt;09a15e9660c1ebc6f429d818825ce0c6</title>
<path fill="none" stroke="black" d="M1456.58,-1686.38C1437.84,-1682.38 1415.19,-1675.74 1397,-1665 1005.46,-1433.7 1133.76,-936 679,-936"/>
</g>
<!-- cc6b2708dbd39f6aff393efae272ab34 -->
<g id="node6" class="node"><title>cc6b2708dbd39f6aff393efae272ab34</title>
<a xlink:href="_Request_Header_PragmaHeader.html" xlink:title="Pragma" target="_top">
<polygon fill="white" stroke="black" points="1527,-1656 1459,-1656 1459,-1620 1527,-1620 1527,-1656"/>
<text text-anchor="middle" x="1493" y="-1634.4" font-family="Times Roman,serif" font-size="14.00">Pragma</text>
</a>
</g>
<!-- cc6b2708dbd39f6aff393efae272ab34&#45;&gt;09a15e9660c1ebc6f429d818825ce0c6 -->
<g id="edge10" class="edge"><title>cc6b2708dbd39f6aff393efae272ab34-&gt;09a15e9660c1ebc6f429d818825ce0c6</title>
<path fill="none" stroke="black" d="M1458.11,-1632.39C1439.17,-1628.33 1415.84,-1621.65 1397,-1611 1015.68,-1395.52 1116.99,-936 679,-936"/>
</g>
<!-- b03178d7bcbd141cd74d45d063b0cdcc -->
<g id="node7" class="node"><title>b03178d7bcbd141cd74d45d063b0cdcc</title>
<a xlink:href="_Request_Header_RequestHeader.html" xlink:title="RequestHeader" target="_top">
<polygon fill="white" stroke="black" points="1554,-1602 1432,-1602 1432,-1566 1554,-1566 1554,-1602"/>
<text text-anchor="middle" x="1493" y="-1580.4" font-family="Times Roman,serif" font-size="14.00">RequestHeader</text>
</a>
</g>
<!-- b03178d7bcbd141cd74d45d063b0cdcc&#45;&gt;09a15e9660c1ebc6f429d818825ce0c6 -->
<g id="edge12" class="edge"><title>b03178d7bcbd141cd74d45d063b0cdcc-&gt;09a15e9660c1ebc6f429d818825ce0c6</title>
<path fill="none" stroke="black" d="M1431.76,-1571.13C1419.86,-1567.43 1407.75,-1562.78 1397,-1557 1025.46,-1357.09 1100.91,-936 679,-936"/>
</g>
<!-- 909898b7026e2c5029c75e064ff27289 -->
<g id="node8" class="node"><title>909898b7026e2c5029c75e064ff27289</title>
<a xlink:href="_Request_Header_ConnectionHeader.html" xlink:title="Connection" target="_top">
<polygon fill="white" stroke="black" points="1540,-1548 1446,-1548 1446,-1512 1540,-1512 1540,-1548"/>
<text text-anchor="middle" x="1493" y="-1526.4" font-family="Times Roman,serif" font-size="14.00">Connection</text>
</a>
</g>
<!-- 909898b7026e2c5029c75e064ff27289&#45;&gt;09a15e9660c1ebc6f429d818825ce0c6 -->
<g id="edge14" class="edge"><title>909898b7026e2c5029c75e064ff27289-&gt;09a15e9660c1ebc6f429d818825ce0c6</title>
<path fill="none" stroke="black" d="M1445.22,-1520.52C1429.37,-1516.35 1411.96,-1510.63 1397,-1503 1034.71,-1318.38 1085.62,-936 679,-936"/>
</g>
<!-- fa84017e700411388625b721d54c0630 -->
<g id="node9" class="node"><title>fa84017e700411388625b721d54c0630</title>
<a xlink:href="_Request_Header_AcceptEncodingHeader.html" xlink:title="AcceptEncodingHeader" target="_top">
<polygon fill="white" stroke="black" points="1580,-1494 1406,-1494 1406,-1458 1580,-1458 1580,-1494"/>
<text text-anchor="middle" x="1493" y="-1472.4" font-family="Times Roman,serif" font-size="14.00">AcceptEncodingHeader</text>
</a>
</g>
<!-- fa84017e700411388625b721d54c0630&#45;&gt;09a15e9660c1ebc6f429d818825ce0c6 -->
<g id="edge16" class="edge"><title>fa84017e700411388625b721d54c0630-&gt;09a15e9660c1ebc6f429d818825ce0c6</title>
<path fill="none" stroke="black" d="M1418.92,-1457.99C1411.38,-1455.32 1403.95,-1452.33 1397,-1449 1043.39,-1279.37 1071.19,-936 679,-936"/>
</g>
<!-- c59b26720c04edb65bc1d82021c61fd5 -->
<g id="node10" class="node"><title>c59b26720c04edb65bc1d82021c61fd5</title>
<a xlink:href="_Request_Header_TeHeader.html" xlink:title="Te" target="_top">
<polygon fill="white" stroke="black" points="1520,-1440 1466,-1440 1466,-1404 1520,-1404 1520,-1440"/>
<text text-anchor="middle" x="1493" y="-1418.4" font-family="Times Roman,serif" font-size="14.00">Te</text>
</a>
</g>
<!-- c59b26720c04edb65bc1d82021c61fd5&#45;&gt;09a15e9660c1ebc6f429d818825ce0c6 -->
<g id="edge18" class="edge"><title>c59b26720c04edb65bc1d82021c61fd5-&gt;09a15e9660c1ebc6f429d818825ce0c6</title>
<path fill="none" stroke="black" d="M1465.77,-1416.6C1446.14,-1412.16 1419.28,-1404.99 1397,-1395 1051.4,-1240.05 1057.75,-936 679,-936"/>
</g>
<!-- 8704372332c81ad392973de6b5885379 -->
<g id="node11" class="node"><title>8704372332c81ad392973de6b5885379</title>
<a xlink:href="_Request_Header_ViaHeader.html" xlink:title="Via" target="_top">
<polygon fill="white" stroke="black" points="1520,-1386 1466,-1386 1466,-1350 1520,-1350 1520,-1386"/>
<text text-anchor="middle" x="1493" y="-1364.4" font-family="Times Roman,serif" font-size="14.00">Via</text>
</a>
</g>
<!-- 8704372332c81ad392973de6b5885379&#45;&gt;09a15e9660c1ebc6f429d818825ce0c6 -->
<g id="edge20" class="edge"><title>8704372332c81ad392973de6b5885379-&gt;09a15e9660c1ebc6f429d818825ce0c6</title>
<path fill="none" stroke="black" d="M1465.93,-1362.22C1446.38,-1357.61 1419.54,-1350.37 1397,-1341 1058.68,-1200.4 1045.38,-936 679,-936"/>
</g>
<!-- 06e68d90dbbb29efdf53b28a776328dd -->
<g id="node12" class="node"><title>06e68d90dbbb29efdf53b28a776328dd</title>
<a xlink:href="_Request_Header_ProxyAuthorizationHeader.html" xlink:title="ProxyAuthorization" target="_top">
<polygon fill="white" stroke="black" points="1568,-1332 1418,-1332 1418,-1296 1568,-1296 1568,-1332"/>
<text text-anchor="middle" x="1493" y="-1310.4" font-family="Times Roman,serif" font-size="14.00">ProxyAuthorization</text>
</a>
</g>
<!-- 06e68d90dbbb29efdf53b28a776328dd&#45;&gt;09a15e9660c1ebc6f429d818825ce0c6 -->
<g id="edge22" class="edge"><title>06e68d90dbbb29efdf53b28a776328dd-&gt;09a15e9660c1ebc6f429d818825ce0c6</title>
<path fill="none" stroke="black" d="M1423.04,-1295.92C1414.19,-1293.17 1405.33,-1290.18 1397,-1287 1065.13,-1160.4 1034.2,-936 679,-936"/>
</g>
<!-- 64a01d431e811ad1e72108be7b3d938b -->
<g id="node13" class="node"><title>64a01d431e811ad1e72108be7b3d938b</title>
<a xlink:href="_Request_Header_MaxForwardsHeader.html" xlink:title="MaxForwards" target="_top">
<polygon fill="white" stroke="black" points="1547,-1278 1439,-1278 1439,-1242 1547,-1242 1547,-1278"/>
<text text-anchor="middle" x="1493" y="-1256.4" font-family="Times Roman,serif" font-size="14.00">MaxForwards</text>
</a>
</g>
<!-- 64a01d431e811ad1e72108be7b3d938b&#45;&gt;09a15e9660c1ebc6f429d818825ce0c6 -->
<g id="edge24" class="edge"><title>64a01d431e811ad1e72108be7b3d938b-&gt;09a15e9660c1ebc6f429d818825ce0c6</title>
<path fill="none" stroke="black" d="M1438.33,-1245.83C1424.73,-1241.97 1410.25,-1237.59 1397,-1233 1070.66,-1120.05 1024.33,-936 679,-936"/>
</g>
<!-- 3d987fdc57d7b6299b0007dacb70ebca -->
<g id="node14" class="node"><title>3d987fdc57d7b6299b0007dacb70ebca</title>
<a xlink:href="_Request_Header_IfRangeHeader.html" xlink:title="IfRange" target="_top">
<polygon fill="white" stroke="black" points="1527,-1224 1459,-1224 1459,-1188 1527,-1188 1527,-1224"/>
<text text-anchor="middle" x="1493" y="-1202.4" font-family="Times Roman,serif" font-size="14.00">IfRange</text>
</a>
</g>
<!-- 3d987fdc57d7b6299b0007dacb70ebca&#45;&gt;09a15e9660c1ebc6f429d818825ce0c6 -->
<g id="edge26" class="edge"><title>3d987fdc57d7b6299b0007dacb70ebca-&gt;09a15e9660c1ebc6f429d818825ce0c6</title>
<path fill="none" stroke="black" d="M1458.21,-1196.69C1439.93,-1191.67 1417.18,-1185.25 1397,-1179 1075.18,-1079.36 1015.89,-936 679,-936"/>
</g>
<!-- 37de15435eb3a87da304fb458a192079 -->
<g id="node15" class="node"><title>37de15435eb3a87da304fb458a192079</title>
<a xlink:href="_Request_Header_FromHeader.html" xlink:title="From" target="_top">
<polygon fill="white" stroke="black" points="1520,-1170 1466,-1170 1466,-1134 1520,-1134 1520,-1170"/>
<text text-anchor="middle" x="1493" y="-1148.4" font-family="Times Roman,serif" font-size="14.00">From</text>
</a>
</g>
<!-- 37de15435eb3a87da304fb458a192079&#45;&gt;09a15e9660c1ebc6f429d818825ce0c6 -->
<g id="edge28" class="edge"><title>37de15435eb3a87da304fb458a192079-&gt;09a15e9660c1ebc6f429d818825ce0c6</title>
<path fill="none" stroke="black" d="M1465.63,-1144.31C1328.42,-1105.83 720.487,-936 679,-936"/>
</g>
<!-- 846889080a50fee70ea604d666968ddb -->
<g id="node16" class="node"><title>846889080a50fee70ea604d666968ddb</title>
<a xlink:href="_Request_Header_IfModifiedSinceHeader.html" xlink:title="IfModifiedSince" target="_top">
<polygon fill="white" stroke="black" points="1552,-1116 1434,-1116 1434,-1080 1552,-1080 1552,-1116"/>
<text text-anchor="middle" x="1493" y="-1094.4" font-family="Times Roman,serif" font-size="14.00">IfModifiedSince</text>
</a>
</g>
<!-- 846889080a50fee70ea604d666968ddb&#45;&gt;09a15e9660c1ebc6f429d818825ce0c6 -->
<g id="edge30" class="edge"><title>846889080a50fee70ea604d666968ddb-&gt;09a15e9660c1ebc6f429d818825ce0c6</title>
<path fill="none" stroke="black" d="M1433.39,-1082.98C1272.03,-1042.82 828.765,-936 679,-936"/>
</g>
<!-- 63eb05b84e4b14ae5ab792208f5d8878 -->
<g id="node17" class="node"><title>63eb05b84e4b14ae5ab792208f5d8878</title>
<a xlink:href="_Request_Header_ExpectHeader.html" xlink:title="Expect" target="_top">
<polygon fill="white" stroke="black" points="1524,-1062 1462,-1062 1462,-1026 1524,-1026 1524,-1062"/>
<text text-anchor="middle" x="1493" y="-1040.4" font-family="Times Roman,serif" font-size="14.00">Expect</text>
</a>
</g>
<!-- 63eb05b84e4b14ae5ab792208f5d8878&#45;&gt;09a15e9660c1ebc6f429d818825ce0c6 -->
<g id="edge32" class="edge"><title>63eb05b84e4b14ae5ab792208f5d8878-&gt;09a15e9660c1ebc6f429d818825ce0c6</title>
<path fill="none" stroke="black" d="M1461.39,-1036.75C1353.02,-1012.53 986.212,-936 679,-936"/>
</g>
<!-- 9a1dd4ecd3201b975687c1c357459338 -->
<g id="node18" class="node"><title>9a1dd4ecd3201b975687c1c357459338</title>
<a xlink:href="_Request_Header_IfMatchHeader.html" xlink:title="IfMatch" target="_top">
<polygon fill="white" stroke="black" points="1527,-1008 1459,-1008 1459,-972 1527,-972 1527,-1008"/>
<text text-anchor="middle" x="1493" y="-986.4" font-family="Times Roman,serif" font-size="14.00">IfMatch</text>
</a>
</g>
<!-- 9a1dd4ecd3201b975687c1c357459338&#45;&gt;09a15e9660c1ebc6f429d818825ce0c6 -->
<g id="edge34" class="edge"><title>9a1dd4ecd3201b975687c1c357459338-&gt;09a15e9660c1ebc6f429d818825ce0c6</title>
<path fill="none" stroke="black" d="M1458.93,-986.116C1347.27,-973.735 982.088,-936 679,-936"/>
</g>
<!-- 2274348fc3318179600cc7d1c6e40384 -->
<g id="node19" class="node"><title>2274348fc3318179600cc7d1c6e40384</title>
<a xlink:href="_Request_Header_ContentTypeHeader.html" xlink:title="ContentType" target="_top">
<polygon fill="white" stroke="black" points="1545,-954 1441,-954 1441,-918 1545,-918 1545,-954"/>
<text text-anchor="middle" x="1493" y="-932.4" font-family="Times Roman,serif" font-size="14.00">ContentType</text>
</a>
</g>
<!-- 2274348fc3318179600cc7d1c6e40384&#45;&gt;09a15e9660c1ebc6f429d818825ce0c6 -->
<g id="edge36" class="edge"><title>2274348fc3318179600cc7d1c6e40384-&gt;09a15e9660c1ebc6f429d818825ce0c6</title>
<path fill="none" stroke="black" d="M1440.62,-936C1311.32,-936 966.585,-936 679,-936"/>
</g>
<!-- c059ae70cb6a289624f08ee30ad11edc -->
<g id="node20" class="node"><title>c059ae70cb6a289624f08ee30ad11edc</title>
<a xlink:href="_Request_Header_UserAgentHeader.html" xlink:title="UserAgent" target="_top">
<polygon fill="white" stroke="black" points="1537,-900 1449,-900 1449,-864 1537,-864 1537,-900"/>
<text text-anchor="middle" x="1493" y="-878.4" font-family="Times Roman,serif" font-size="14.00">UserAgent</text>
</a>
</g>
<!-- c059ae70cb6a289624f08ee30ad11edc&#45;&gt;09a15e9660c1ebc6f429d818825ce0c6 -->
<g id="edge38" class="edge"><title>c059ae70cb6a289624f08ee30ad11edc-&gt;09a15e9660c1ebc6f429d818825ce0c6</title>
<path fill="none" stroke="black" d="M1448.07,-887.08C1325.14,-900.523 972.882,-936 679,-936"/>
</g>
<!-- 654542fc27c6be3940c29f1d2c1d895b -->
<g id="node21" class="node"><title>654542fc27c6be3940c29f1d2c1d895b</title>
<a xlink:href="_Request_Header_IfNoneMatchHeader.html" xlink:title="IfNoneMatch" target="_top">
<polygon fill="white" stroke="black" points="1545,-846 1441,-846 1441,-810 1545,-810 1545,-846"/>
<text text-anchor="middle" x="1493" y="-824.4" font-family="Times Roman,serif" font-size="14.00">IfNoneMatch</text>
</a>
</g>
<!-- 654542fc27c6be3940c29f1d2c1d895b&#45;&gt;09a15e9660c1ebc6f429d818825ce0c6 -->
<g id="edge40" class="edge"><title>654542fc27c6be3940c29f1d2c1d895b-&gt;09a15e9660c1ebc6f429d818825ce0c6</title>
<path fill="none" stroke="black" d="M1440.94,-839.763C1312.36,-867.755 969.105,-936 679,-936"/>
</g>
<!-- 550282e504525cc95db7648981fa4dea -->
<g id="node22" class="node"><title>550282e504525cc95db7648981fa4dea</title>
<a xlink:href="_Request_Header_CacheControl.html" xlink:title="CacheControl" target="_top">
<polygon fill="white" stroke="black" points="1548,-792 1438,-792 1438,-756 1548,-756 1548,-792"/>
<text text-anchor="middle" x="1493" y="-770.4" font-family="Times Roman,serif" font-size="14.00">CacheControl</text>
</a>
</g>
<!-- 550282e504525cc95db7648981fa4dea&#45;&gt;09a15e9660c1ebc6f429d818825ce0c6 -->
<g id="edge42" class="edge"><title>550282e504525cc95db7648981fa4dea-&gt;09a15e9660c1ebc6f429d818825ce0c6</title>
<path fill="none" stroke="black" d="M1437.97,-787.882C1280.59,-827.118 830.205,-936 679,-936"/>
</g>
<!-- cfd8d7d70c6684c6fbd1d658f827cde0 -->
<g id="node23" class="node"><title>cfd8d7d70c6684c6fbd1d658f827cde0</title>
<a xlink:href="_Request_Header_WarningHeader.html" xlink:title="Warning" target="_top">
<polygon fill="white" stroke="black" points="1530,-738 1456,-738 1456,-702 1530,-702 1530,-738"/>
<text text-anchor="middle" x="1493" y="-716.4" font-family="Times Roman,serif" font-size="14.00">Warning</text>
</a>
</g>
<!-- cfd8d7d70c6684c6fbd1d658f827cde0&#45;&gt;09a15e9660c1ebc6f429d818825ce0c6 -->
<g id="edge44" class="edge"><title>cfd8d7d70c6684c6fbd1d658f827cde0-&gt;09a15e9660c1ebc6f429d818825ce0c6</title>
<path fill="none" stroke="black" d="M1455.36,-730.564C1300.61,-773.931 719.528,-936 679,-936"/>
</g>
<!-- e33edd8b6b5c89639b3032cc38f7404a -->
<g id="node24" class="node"><title>e33edd8b6b5c89639b3032cc38f7404a</title>
<a xlink:href="_Request_Header_HostHeader.html" xlink:title="Host" target="_top">
<polygon fill="white" stroke="black" points="1520,-684 1466,-684 1466,-648 1520,-648 1520,-684"/>
<text text-anchor="middle" x="1493" y="-662.4" font-family="Times Roman,serif" font-size="14.00">Host</text>
</a>
</g>
<!-- e33edd8b6b5c89639b3032cc38f7404a&#45;&gt;09a15e9660c1ebc6f429d818825ce0c6 -->
<g id="edge46" class="edge"><title>e33edd8b6b5c89639b3032cc38f7404a-&gt;09a15e9660c1ebc6f429d818825ce0c6</title>
<path fill="none" stroke="black" d="M1465.99,-673.191C1446.69,-678.428 1420.15,-685.831 1397,-693 1075.18,-792.64 1015.89,-936 679,-936"/>
</g>
<!-- 86ce3378368946b4385007d8f5b052ad -->
<g id="node25" class="node"><title>86ce3378368946b4385007d8f5b052ad</title>
<a xlink:href="_Request_Header_Authorization.html" xlink:title="Authorization" target="_top">
<polygon fill="white" stroke="black" points="1549,-630 1437,-630 1437,-594 1549,-594 1549,-630"/>
<text text-anchor="middle" x="1493" y="-608.4" font-family="Times Roman,serif" font-size="14.00">Authorization</text>
</a>
</g>
<!-- 86ce3378368946b4385007d8f5b052ad&#45;&gt;09a15e9660c1ebc6f429d818825ce0c6 -->
<g id="edge48" class="edge"><title>86ce3378368946b4385007d8f5b052ad-&gt;09a15e9660c1ebc6f429d818825ce0c6</title>
<path fill="none" stroke="black" d="M1436.81,-626.602C1423.66,-630.351 1409.76,-634.583 1397,-639 1070.66,-751.946 1024.33,-936 679,-936"/>
</g>
<!-- f299cc05ecd30ae58a41298bfd0e2d0e -->
<g id="node26" class="node"><title>f299cc05ecd30ae58a41298bfd0e2d0e</title>
<a xlink:href="_Request_Header_ContentLengthHeader.html" xlink:title="ContentLength" target="_top">
<polygon fill="white" stroke="black" points="1554,-576 1432,-576 1432,-540 1554,-540 1554,-576"/>
<text text-anchor="middle" x="1493" y="-554.4" font-family="Times Roman,serif" font-size="14.00">ContentLength</text>
</a>
</g>
<!-- f299cc05ecd30ae58a41298bfd0e2d0e&#45;&gt;09a15e9660c1ebc6f429d818825ce0c6 -->
<g id="edge50" class="edge"><title>f299cc05ecd30ae58a41298bfd0e2d0e-&gt;09a15e9660c1ebc6f429d818825ce0c6</title>
<path fill="none" stroke="black" d="M1431.77,-573.433C1420.1,-576.875 1408.08,-580.773 1397,-585 1065.13,-711.6 1034.2,-936 679,-936"/>
</g>
<!-- 38547d88daa0bdb36e5a8e2fd4e4e781 -->
<g id="node27" class="node"><title>38547d88daa0bdb36e5a8e2fd4e4e781</title>
<a xlink:href="_Request_Header_AcceptCharsetHeader.html" xlink:title="AcceptCharsetHeader" target="_top">
<polygon fill="white" stroke="black" points="1576,-522 1410,-522 1410,-486 1576,-486 1576,-522"/>
<text text-anchor="middle" x="1493" y="-500.4" font-family="Times Roman,serif" font-size="14.00">AcceptCharsetHeader</text>
</a>
</g>
<!-- 38547d88daa0bdb36e5a8e2fd4e4e781&#45;&gt;09a15e9660c1ebc6f429d818825ce0c6 -->
<g id="edge52" class="edge"><title>38547d88daa0bdb36e5a8e2fd4e4e781-&gt;09a15e9660c1ebc6f429d818825ce0c6</title>
<path fill="none" stroke="black" d="M1421.57,-522.025C1413.19,-524.746 1404.83,-527.744 1397,-531 1058.68,-671.604 1045.38,-936 679,-936"/>
</g>
<!-- 9a4cbfafc96cb89331d44ba3212d264b -->
<g id="node28" class="node"><title>9a4cbfafc96cb89331d44ba3212d264b</title>
<a xlink:href="_Request_Header_IfUnmodifiedSinceHeader.html" xlink:title="IfUnmodifiedSince" target="_top">
<polygon fill="white" stroke="black" points="1563,-468 1423,-468 1423,-432 1563,-432 1563,-468"/>
<text text-anchor="middle" x="1493" y="-446.4" font-family="Times Roman,serif" font-size="14.00">IfUnmodifiedSince</text>
</a>
</g>
<!-- 9a4cbfafc96cb89331d44ba3212d264b&#45;&gt;09a15e9660c1ebc6f429d818825ce0c6 -->
<g id="edge54" class="edge"><title>9a4cbfafc96cb89331d44ba3212d264b-&gt;09a15e9660c1ebc6f429d818825ce0c6</title>
<path fill="none" stroke="black" d="M1422.92,-467.094C1414.05,-470.016 1405.22,-473.317 1397,-477 1051.4,-631.95 1057.75,-936 679,-936"/>
</g>
<!-- 967e10383d31f4b592a8192053f6d7f2 -->
<g id="node29" class="node"><title>967e10383d31f4b592a8192053f6d7f2</title>
<a xlink:href="_Request_Header_RefererHeader.html" xlink:title="Referer" target="_top">
<polygon fill="white" stroke="black" points="1526,-414 1460,-414 1460,-378 1526,-378 1526,-414"/>
<text text-anchor="middle" x="1493" y="-392.4" font-family="Times Roman,serif" font-size="14.00">Referer</text>
</a>
</g>
<!-- 967e10383d31f4b592a8192053f6d7f2&#45;&gt;09a15e9660c1ebc6f429d818825ce0c6 -->
<g id="edge56" class="edge"><title>967e10383d31f4b592a8192053f6d7f2-&gt;09a15e9660c1ebc6f429d818825ce0c6</title>
<path fill="none" stroke="black" d="M1459.09,-402.517C1440.23,-406.877 1416.67,-413.565 1397,-423 1043.39,-592.628 1071.19,-936 679,-936"/>
</g>
<!-- 183bda45e02c78eeb2d74bf960595de2 -->
<g id="node30" class="node"><title>183bda45e02c78eeb2d74bf960595de2</title>
<a xlink:href="_Request_Header_AcceptEncodingLanguage.html" xlink:title="AcceptEncodingLanguage" target="_top">
<polygon fill="white" stroke="black" points="1589,-360 1397,-360 1397,-324 1589,-324 1589,-360"/>
<text text-anchor="middle" x="1493" y="-338.4" font-family="Times Roman,serif" font-size="14.00">AcceptEncodingLanguage</text>
</a>
</g>
<!-- 183bda45e02c78eeb2d74bf960595de2&#45;&gt;09a15e9660c1ebc6f429d818825ce0c6 -->
<g id="edge58" class="edge"><title>183bda45e02c78eeb2d74bf960595de2-&gt;09a15e9660c1ebc6f429d818825ce0c6</title>
<path fill="none" stroke="black" d="M1417.74,-360.044C1410.58,-362.683 1403.56,-365.659 1397,-369 1034.71,-553.62 1085.62,-936 679,-936"/>
</g>
<!-- 9ee836b8ffe4502c9e3c9a382c1b3670 -->
<g id="node31" class="node"><title>9ee836b8ffe4502c9e3c9a382c1b3670</title>
<a xlink:href="_Request_Header_AcceptHeader.html" xlink:title="AcceptHeader" target="_top">
<polygon fill="white" stroke="black" points="1549,-306 1437,-306 1437,-270 1549,-270 1549,-306"/>
<text text-anchor="middle" x="1493" y="-284.4" font-family="Times Roman,serif" font-size="14.00">AcceptHeader</text>
</a>
</g>
<!-- 9ee836b8ffe4502c9e3c9a382c1b3670&#45;&gt;09a15e9660c1ebc6f429d818825ce0c6 -->
<g id="edge60" class="edge"><title>9ee836b8ffe4502c9e3c9a382c1b3670-&gt;09a15e9660c1ebc6f429d818825ce0c6</title>
<path fill="none" stroke="black" d="M1436.81,-299.359C1423.32,-303.276 1409.27,-308.396 1397,-315 1025.46,-514.91 1100.91,-936 679,-936"/>
</g>
<!-- 7ffe85e3438b90f53deb300933fc3b75 -->
<g id="node32" class="node"><title>7ffe85e3438b90f53deb300933fc3b75</title>
<a xlink:href="_Request_Header_RangeHeader.html" xlink:title="Range" target="_top">
<polygon fill="white" stroke="black" points="1523,-252 1463,-252 1463,-216 1523,-216 1523,-252"/>
<text text-anchor="middle" x="1493" y="-230.4" font-family="Times Roman,serif" font-size="14.00">Range</text>
</a>
</g>
<!-- 7ffe85e3438b90f53deb300933fc3b75&#45;&gt;09a15e9660c1ebc6f429d818825ce0c6 -->
<g id="edge62" class="edge"><title>7ffe85e3438b90f53deb300933fc3b75-&gt;09a15e9660c1ebc6f429d818825ce0c6</title>
<path fill="none" stroke="black" d="M1462.57,-238.687C1442.93,-242.622 1417.35,-249.501 1397,-261 1015.68,-476.477 1116.99,-936 679,-936"/>
</g>
<!-- e62054db7fdcb56da1edfef22c4fa903 -->
<g id="node33" class="node"><title>e62054db7fdcb56da1edfef22c4fa903</title>
<a xlink:href="_Request_Header_DateHeader.html" xlink:title="Date" target="_top">
<polygon fill="white" stroke="black" points="1520,-198 1466,-198 1466,-162 1520,-162 1520,-198"/>
<text text-anchor="middle" x="1493" y="-176.4" font-family="Times Roman,serif" font-size="14.00">Date</text>
</a>
</g>
<!-- e62054db7fdcb56da1edfef22c4fa903&#45;&gt;09a15e9660c1ebc6f429d818825ce0c6 -->
<g id="edge64" class="edge"><title>e62054db7fdcb56da1edfef22c4fa903-&gt;09a15e9660c1ebc6f429d818825ce0c6</title>
<path fill="none" stroke="black" d="M1465.86,-183.777C1445.77,-187.458 1418.32,-194.408 1397,-207 1005.46,-438.302 1133.76,-936 679,-936"/>
</g>
<!-- 3ac73c4c145b5ddb4d684ce5ab9bad88 -->
<g id="node34" class="node"><title>3ac73c4c145b5ddb4d684ce5ab9bad88</title>
<a xlink:href="_Request_Header_ContentMd5Header.html" xlink:title="ContentMd5" target="_top">
<polygon fill="white" stroke="black" points="1544,-144 1442,-144 1442,-108 1544,-108 1544,-144"/>
<text text-anchor="middle" x="1493" y="-122.4" font-family="Times Roman,serif" font-size="14.00">ContentMd5</text>
</a>
</g>
<!-- 3ac73c4c145b5ddb4d684ce5ab9bad88&#45;&gt;09a15e9660c1ebc6f429d818825ce0c6 -->
<g id="edge66" class="edge"><title>3ac73c4c145b5ddb4d684ce5ab9bad88-&gt;09a15e9660c1ebc6f429d818825ce0c6</title>
<path fill="none" stroke="black" d="M1441.99,-134.771C1426.78,-138.821 1410.57,-144.655 1397,-153 994.822,-400.364 1151.16,-936 679,-936"/>
</g>
<!-- 15af8fb72c8c8e057c423465a0191fcf -->
<g id="node35" class="node"><title>15af8fb72c8c8e057c423465a0191fcf</title>
<a xlink:href="_Request_Header_CookieHeader.html" xlink:title="Cookie" target="_top">
<polygon fill="white" stroke="black" points="1524,-90 1462,-90 1462,-54 1524,-54 1524,-90"/>
<text text-anchor="middle" x="1493" y="-68.4" font-family="Times Roman,serif" font-size="14.00">Cookie</text>
</a>
</g>
<!-- 15af8fb72c8c8e057c423465a0191fcf&#45;&gt;09a15e9660c1ebc6f429d818825ce0c6 -->
<g id="edge68" class="edge"><title>15af8fb72c8c8e057c423465a0191fcf-&gt;09a15e9660c1ebc6f429d818825ce0c6</title>
<path fill="none" stroke="black" d="M1461.25,-76.131C1441.56,-79.8096 1416.41,-86.6134 1397,-99 983.833,-362.646 1169.12,-936 679,-936"/>
</g>
<!-- 7bccaebe918cf5215ac7eb307d1ff6e8 -->
<g id="node36" class="node"><title>7bccaebe918cf5215ac7eb307d1ff6e8</title>
<a xlink:href="_Request_Header_UpgradeHeader.html" xlink:title="Upgrade" target="_top">
<polygon fill="white" stroke="black" points="1530,-36 1456,-36 1456,-1.77636e-14 1530,-3.55271e-15 1530,-36"/>
<text text-anchor="middle" x="1493" y="-14.4" font-family="Times Roman,serif" font-size="14.00">Upgrade</text>
</a>
</g>
<!-- 7bccaebe918cf5215ac7eb307d1ff6e8&#45;&gt;09a15e9660c1ebc6f429d818825ce0c6 -->
<g id="edge70" class="edge"><title>7bccaebe918cf5215ac7eb307d1ff6e8-&gt;09a15e9660c1ebc6f429d818825ce0c6</title>
<path fill="none" stroke="black" d="M1455.65,-22.9796C1436.89,-26.798 1414.48,-33.461 1397,-45 972.529,-325.129 1187.57,-936 679,-936"/>
<path fill="none" stroke="black" d="M679,-936C530.611,-936 354.88,-936 272.718,-936"/>
<polygon fill="none" stroke="black" points="272.699,-932.5 262.699,-936 272.699,-939.5 272.699,-932.5"/>
</g>
</g>
<script xlink:href="js/SVGPan.js"/></svg>
